<svg xmlns="http://www.w3.org/2000/svg"  viewBox="0 0 512 512" width="24px" height="24px"><path fill="#D6E5E5" d="M409.8 167.8c-1.1-.2-2.2-.3-3.4-.3-3.8 0-7.7.2-11.5.5-20.4 1.7-41.1.8-61.6.8.2 5.1.7 10.3 1.3 15.4 25.1 2.9 50.4-.1 75.6-.5C410.5 178.5 411.1 172.7 409.8 167.8zM281.5 291.6c-1.4-8.1-3.9-14-9.1-20.4-2.4-3-5-5.9-8.1-8.3-.3-.2-.5-.4-.8-.7-3.2-3.8-7.2-7-11.5-9.7.3-.3.7-.5 1.1-.7.3-.1.5-.3.8-.4.6-.4 1.2-.7 1.8-.9 7.6-4 14.7-9.5 19.6-16.7 5.7-8.4 7.3-18.2 6.6-28.1-1.1-18.5-7.6-37.7-21.1-51-6.6-6.5-14.6-11.9-23.5-14.6-11.8-3.7-24.5-4.2-36.7-4.4-26.5-.5-53 2.1-79.5 2.4-.1.3-.2.6-.3 1-1.4 3.4-.1 8.1.6 11.6.9 4.2 1.8 8.4 2.3 12.7 1.2 10.2 2.9 20.4 3.3 30.7.4 10.7-.3 21.5 0 32.2.3 10.7 1 21.4 1.2 32.1.3 21.5-.1 43 1.9 64.4.7 7.9 0 15.9-.3 23.8-.2 7.3-.7 15.2 2.1 22 .2.4.3.8.4 1.2 26.6 5.8 54.9 4.3 81.6.5 13.1-1.9 26.5-2.9 39.5-5.4 8-1.5 16.2-4.7 21.3-11.3 5.9-7.7 7.2-17.9 8-27.3C283.5 314.8 283.4 303 281.5 291.6zM160 233.4c-1.8-.6-3.1-2.1-3.1-4.5-.1-19.5-3.8-38.7-3.9-58.2 0-4.4 4.4-6.4 7.6-5.4.4-.2.9-.3 1.4-.4 17-2.8 35.2-6.5 52.3-2.7 16.8 3.7 32.9 16.3 35.1 34.4 2 16.5-10.9 28.5-24.9 34.5-7.9 3.4-16.3 5.3-24.9 6-12.2 1.1-24.3 2-36.2-1.4C161.7 235.3 160.7 234.4 160 233.4zM228.5 344.4c-7.1 2.3-14.7 4-22.1 4.5-10 .7-20-.2-29.9 1.3-2.3.3-4-.6-4.8-2.2-2.5.8-6-.8-6.6-3.4-4-18-3.3-36.3-3.2-54.6 0-3.6 2.9-5.6 5.7-5.7.6-.8 1.5-1.5 2.8-1.8 9.1-2.4 18.1-1.8 27.4-2.4 8.7-.6 17.9-2 26.6-.1 15.2 3.4 28.4 17.1 29 33.2C253.9 329.1 242.9 339.8 228.5 344.4z"/><path fill="#1E4384" d="M242.5 314c-1.2-13.3-11.7-23.3-24.9-24.1-7.3-.4-14.6.9-21.9 1-7.3.1-14.6-.2-21.8 1.7-.5.1-.9.2-1.3.2-.1 14.4-.7 29.1 1.8 43.3 1.1.6 1.9 1.6 2.1 3.1 15-2.1 30 .1 44.8-4C231.4 332.4 243.6 326.6 242.5 314zM237.9 195.3c-9.9-31.5-49.1-24-74.1-19.8.6 16.8 3.4 33.4 3.8 50.2 9.6 2.3 19.3 1.6 29.1.8 7.5-.7 14.7-1.8 21.7-4.6C228.8 217.5 242.1 208.4 237.9 195.3zM392.9 250.5c-4.4-2.2-9.5-2.3-14.3-1.7-7.2.9-18.4 3.6-22.4 10.7 3.7 0 7.5 0 11.2-.1 5.3-.2 10.9-1 16.2-.8 3.5.1 7 .5 10.6.6 1.4 0 3.4.3 5.2.2C398 255.8 396.1 252.1 392.9 250.5z"/><path fill="#1E4384" d="M489.1,210.6c-3.5-26.2-10.3-52.8-24.1-75.7C420.4,61.4,322.5,35,241.4,43.6c-50.2,5.3-99.2,25.3-136.9,59.4c-20.1,18.2-36.8,39.4-47.3,64.6c-10.5,25.3-14.7,52.6-16,79.8c-0.1,1.2-0.4,2.2-1,3c0.3,33,7.8,65.5,20.9,95.9c12.6,29.3,30.3,57.2,53.7,79.2c15.9,15,34.3,27.4,54.9,35c25.3,9.3,53.3,10.5,79.9,9.2c31.1-1.4,61.9-6.5,92.3-13c24.8-5.3,49.8-12.5,72.2-24.7c22.9-12.5,43.2-29.9,55.8-53.2c13.3-24.8,19.3-52.5,21.3-80.3C493.4,269.3,492.9,239.5,489.1,210.6z M327.2,160.2c0.7-1.3,2.1-2.2,4.1-2.2h44.4c8.9,0,17.6-1,26.5-1.3c6.4-0.2,16-0.6,17.8,7.5c1.5,7.1,1,14.3,1,21.5c0,1.4-0.5,2.5-1.2,3.4c0.2,2.7-1.4,5.3-4.8,5.4c-28.7,0.1-57.6,4-86.2-0.1c-2.5-0.3-4.1-2.6-4.4-4.9c-1-7.9-1.9-15.7-2-23.7C322.4,162.6,324.7,160.7,327.2,160.2z M292.9,331.2c-1.2,10.4-3.4,21.3-10.2,29.6c-6,7.3-14.5,11.9-23.6,14c-13.3,3-27.2,3.9-40.7,5.9c-30,4.3-61.9,6.2-91.7-0.9c-3.1-0.8-4.4-3.4-4.1-5.9c-0.4-0.4-0.7-0.9-0.9-1.5c-6.3-15-1.1-32.8-2.4-48.6c-2-22.7-1.5-45.5-1.9-68.2c-0.2-11.3-1.2-22.6-1.2-34c0.1-11.3,0.8-22.8-0.5-34.1c-1.2-10-1.7-20.4-3.9-30.3c-1.7-7.5-3.8-15.4-0.7-22.8c0.2-0.4,0.4-0.8,0.7-1.2c-0.4-2.8,1.1-5.8,4.8-5.8c32.1-0.1,64.2-4,96.3-1.9c12.6,0.8,25.1,2.2,36.5,7.9c9.2,4.6,17.3,11,23.8,18.9c13.3,16.2,20.6,38.5,19.8,59.5c-0.7,18-9.3,32-22.5,42.1c5.4,3.9,10,9.6,13.6,14.8c5.3,7.7,7.6,15.7,8.8,25C294.3,306,294.4,318.8,292.9,331.2z M443.7,269.9c-0.9,9.8-0.6,19.7-0.8,29.5h-6.8c-0.6,0.3-1.4,0.5-2.3,0.5c-27,0-54,1.7-81.1,1.9c-0.5,0.7-1.3,1.3-2.3,1.7c0.1,0,0.1,0-0.1,0c0,0,0.1,0,0.1,0c-0.1,0-0.2,0-0.2-0.2c0,1.4,0.3,2.6,0.8,4c1.2,3.2,2.9,6.2,4.8,9.1c1.8,2.6,3.6,5.3,5.8,7.6c2.3,2.4,2.1,2.4,5,3.6c8.7,3.5,32.6,6.4,33.8-7.4c0.2-2,1.2-3.3,2.6-3.9c0.7-1.4,2.1-2.5,4.3-2.5c8.9,0.1,17.7,0.9,26.6,1c2.6,0,4.3,1.5,5.2,3.4h2.7c-0.5,3.8-1.1,7.5-2.1,11.2c-5,19.9-18.2,35-37.9,41.6c-39.1,13.1-87.9-4.4-98.5-46.9c-5.6-22.3-4.3-46.9,2.1-68.9c6-20.5,23-35.6,42.7-42.6c19.3-6.9,43.3-8.3,62.1,1.2c19.5,9.8,36.5,30.2,32.8,53.1C443.5,267.6,443.8,268.7,443.7,269.9z"/><path fill="#D6E5E5" d="M347.2,291c28.4,0,56.7-1.9,85-2c0.1-6.1,0.1-12.2,0.5-18.2c-0.8-1-1.1-2.4-0.8-4.1c3.5-16.2-7.3-31.7-20.6-40c-12.4-7.7-26.8-10-41.2-8.3c-14.1,1.7-28.9,6.9-39.5,16.7c-11.1,10.3-15.6,22.9-17.9,37.5c-3.5,21.5-4,48.5,9.3,67.1c12.8,17.7,35.8,26.1,57.2,24.7c21.4-1.3,42.6-11.6,49-33.5c0.5-1.8,1-3.6,1.4-5.5c-6.2-0.2-12.5-0.7-18.7-0.8c-4.2,19.8-36.2,19.2-50.4,12c-9.8-5-28.1-30.1-18-40.4C342.3,293.5,343.9,291,347.2,291z M344.3,260.9c2.7-14.9,20.1-21.5,33.5-22.9c7-0.8,14.6-0.4,20.8,3.3c6.6,3.9,9.8,11,12.3,17.8c0.4,1.1,0.5,2.2,0.2,3.1c0.4,1.8-0.2,3.8-2.3,5.2c-6.5,4.1-15.5,2.4-22.7,2c-5.3-0.3-10.7,0.6-16,0.7c-6.4,0.2-12.8,0.2-19.1,0.2c-3.3,0-5.2-2.5-5.6-5C344.5,264.2,343.9,262.7,344.3,260.9z"/><path d="M502.7,240.4c-1.4-29.7-5.7-59.7-16.7-87.4c-7.8-19.8-19.5-37.6-34.1-53c-29.3-31.1-69.8-50.2-110.8-60.3c-41.5-10.3-85.6-11.3-127.5-2.8C165,46.6,119.7,71,85.1,106.5c-18.2,18.7-32.2,40.7-41.1,65.2c-8.7,23.8-12.2,48.9-13.5,74.1c-0.7,0.9-1.1,2.1-1.1,3.5c0,46.5,14.2,92.4,37.5,132.4c22.2,38.1,55.2,72,96.9,88.1c24.6,9.5,51.4,11.5,77.6,11.1c31-0.4,61.9-5.3,92.3-11.4c50-10,101.7-26.4,134.6-68C503.3,357.1,505.2,294.4,502.7,240.4z M491.3,298.4c-2.1,27.9-8,55.6-21.3,80.3c-12.5,23.2-32.8,40.6-55.8,53.2c-22.4,12.2-47.4,19.4-72.2,24.7c-30.4,6.5-61.2,11.6-92.3,13c-26.7,1.2-54.6,0-79.9-9.2c-20.6-7.6-39-20-54.9-35c-23.4-22-41.1-49.8-53.7-79.2c-13.1-30.3-20.6-62.8-20.9-95.9c0.6-0.8,0.9-1.8,1-3c1.3-27.2,5.6-54.5,16-79.8c10.4-25.2,27.2-46.4,47.3-64.6c37.6-34.1,86.6-54,136.9-59.4c81.1-8.6,179,17.9,223.5,91.4c13.8,22.8,20.6,49.4,24.1,75.7C492.9,239.5,493.4,269.3,491.3,298.4z"/><path d="M292.7,293.6c-1.2-9.3-3.4-17.3-8.8-25c-3.6-5.2-8.1-10.9-13.6-14.8c13.2-10.1,21.7-24,22.5-42.1c0.9-21-6.4-43.3-19.8-59.5c-6.5-7.9-14.6-14.3-23.8-18.9c-11.4-5.7-23.9-7.1-36.5-7.9c-32.1-2.1-64.2,1.8-96.3,1.9c-3.6,0-5.2,3-4.8,5.8c-0.2,0.3-0.5,0.7-0.7,1.2c-3.1,7.4-0.9,15.3,0.7,22.8c2.2,9.8,2.7,20.3,3.9,30.3c1.3,11.3,0.5,22.7,0.5,34.1c-0.1,11.3,0.9,22.6,1.2,34c0.4,22.7-0.1,45.5,1.9,68.2c1.4,15.8-3.9,33.6,2.4,48.6c0.2,0.6,0.6,1.1,0.9,1.5c-0.2,2.5,1,5.2,4.1,5.9c29.7,7.2,61.7,5.3,91.7,0.9c13.5-1.9,27.4-2.9,40.7-5.9c9.1-2.1,17.7-6.7,23.6-14c6.8-8.3,9-19.2,10.2-29.6C294.4,318.8,294.3,306,292.7,293.6z M282.6,326.3c-0.8,9.4-2.1,19.6-8,27.3c-5.1,6.7-13.2,9.8-21.3,11.3c-13,2.4-26.4,3.5-39.5,5.4c-26.7,3.8-55,5.2-81.6-0.5c-0.1-0.4-0.2-0.8-0.4-1.2c-2.9-6.8-2.4-14.8-2.1-22c0.3-7.9,1-15.9,0.3-23.8c-2-21.4-1.6-43-1.9-64.4c-0.1-10.7-0.9-21.4-1.2-32.1c-0.3-10.7,0.4-21.5,0-32.2c-0.4-10.2-2.1-20.5-3.3-30.7c-0.5-4.3-1.4-8.5-2.3-12.7c-0.8-3.4-2.1-8.2-0.6-11.6c0.1-0.3,0.2-0.7,0.3-1c26.5-0.3,53-2.9,79.5-2.4c12.3,0.2,25,0.8,36.7,4.4c8.9,2.8,16.9,8.2,23.5,14.6c13.5,13.2,20,32.4,21.1,51c0.6,9.9-1,19.8-6.6,28.1c-4.9,7.2-11.9,12.6-19.6,16.7c-0.6,0.3-1.2,0.6-1.8,0.9c-0.3,0.1-0.5,0.3-0.8,0.4c-0.4,0.2-0.8,0.4-1.1,0.7c4.3,2.7,8.3,5.9,11.5,9.7c0.3,0.2,0.6,0.5,0.8,0.7c3.1,2.4,5.7,5.3,8.1,8.3c5.1,6.4,7.7,12.2,9.1,20.4C283.4,303,283.5,314.8,282.6,326.3z"/><path d="M249.2 196.5c-2.1-18.1-18.3-30.7-35.1-34.4-17.2-3.8-35.3-.2-52.3 2.7-.5.1-1 .2-1.4.4-3.2-1-7.6 1-7.6 5.4.1 19.5 3.8 38.7 3.9 58.2 0 2.5 1.4 4 3.1 4.5.7 1.1 1.7 1.9 3.2 2.3 11.9 3.4 24.1 2.4 36.2 1.4 8.6-.8 16.9-2.6 24.9-6C238.3 225 251.2 213 249.2 196.5zM218.5 221.8c-7 2.9-14.2 4-21.7 4.6-9.9.9-19.5 1.5-29.1-.8-.3-16.8-3.1-33.4-3.8-50.2 25-4.2 64.1-11.6 74.1 19.8C242.1 208.4 228.8 217.5 218.5 221.8zM253.3 313.2c-.6-16.2-13.7-29.9-29-33.2-8.7-1.9-17.9-.5-26.6.1-9.3.6-18.3 0-27.4 2.4-1.3.3-2.2 1-2.8 1.8-2.8.1-5.7 2-5.7 5.7 0 18.3-.8 36.6 3.2 54.6.6 2.7 4.1 4.2 6.6 3.4.9 1.5 2.5 2.5 4.8 2.2 9.9-1.5 19.9-.6 29.9-1.3 7.4-.5 15-2.2 22.1-4.5C242.9 339.8 253.9 329.1 253.3 313.2zM221.3 335.2c-14.8 4.2-29.8 1.9-44.8 4-.2-1.5-1-2.5-2.1-3.1-2.4-14.2-1.9-28.9-1.8-43.3.4 0 .9-.1 1.3-.2 7.1-1.9 14.5-1.6 21.8-1.7 7.3-.1 14.6-1.5 21.9-1 13.3.8 23.7 10.7 24.9 24.1C243.6 326.6 231.4 332.4 221.3 335.2zM350.5 303.5C350.5 303.5 350.4 303.5 350.5 303.5 350.6 303.5 350.5 303.5 350.5 303.5zM443.1 266.7c3.7-22.8-13.3-43.2-32.8-53.1-18.8-9.5-42.7-8.1-62.1-1.2-19.8 7.1-36.8 22.1-42.7 42.6-6.4 22-7.7 46.6-2.1 68.9 10.6 42.5 59.4 60 98.5 46.9 19.7-6.6 32.8-21.7 37.9-41.6.9-3.7 1.6-7.5 2.1-11.2h-2.7c-.8-1.9-2.6-3.4-5.2-3.4-8.9-.1-17.7-.9-26.6-1-2.2 0-3.6 1-4.3 2.5-1.4.6-2.4 1.8-2.6 3.9-1.2 13.9-25.1 10.9-33.8 7.4-2.9-1.1-2.6-1.1-5-3.6-2.2-2.3-4-5-5.8-7.6-1.9-2.9-3.6-5.8-4.8-9.1-.5-1.3-.7-2.6-.8-4 0 .2.1.2.2.2 1-.4 1.7-1 2.3-1.7 27-.2 54-1.9 81.1-1.9.9 0 1.6-.2 2.3-.5h6.8c.1-9.9-.1-19.8.8-29.5C443.8 268.7 443.5 267.6 443.1 266.7zM432.2 289.1c-28.4.1-56.7 1.9-85 2-3.3 0-4.9 2.5-4.8 5.1-10.2 10.3 8.2 35.4 18 40.4 14.2 7.3 46.2 7.9 50.4-12 6.3.1 12.5.6 18.7.8-.4 1.8-.8 3.7-1.4 5.5-6.4 21.9-27.5 32.2-49 33.5-21.4 1.3-44.4-7-57.2-24.7-13.4-18.6-12.8-45.5-9.3-67.1 2.4-14.6 6.9-27.2 17.9-37.5 10.6-9.8 25.4-15 39.5-16.7 14.4-1.7 28.9.6 41.2 8.3 13.3 8.3 24.1 23.9 20.6 40-.4 1.7 0 3 .8 4.1C432.4 276.9 432.3 283 432.2 289.1z"/><path d="M410.9 259.1c-2.5-6.9-5.8-14-12.3-17.8-6.2-3.7-13.8-4.1-20.8-3.3-13.3 1.4-30.8 8-33.5 22.9-.3 1.8.2 3.3 1.1 4.4.4 2.6 2.3 5 5.6 5 6.4 0 12.8 0 19.1-.2 5.3-.2 10.7-1 16-.7 7.3.4 16.2 2.1 22.7-2 2.1-1.3 2.7-3.3 2.3-5.2C411.4 261.3 411.3 260.3 410.9 259.1zM394.1 259.1c-3.5-.1-7-.5-10.6-.6-5.3-.2-10.9.7-16.2.8-3.7.1-7.5.1-11.2.1 4-7.1 15.2-9.7 22.4-10.7 4.8-.6 9.9-.5 14.3 1.7 3.3 1.6 5.1 5.3 6.5 8.7C397.5 259.3 395.6 259.1 394.1 259.1zM420 164.2c-1.7-8-11.4-7.6-17.8-7.5-8.9.2-17.6 1.3-26.5 1.3h-44.4c-2 0-3.4.9-4.1 2.2-2.5.4-4.8 2.3-4.8 5.6.1 7.9 1 15.8 2 23.7.3 2.3 1.9 4.6 4.4 4.9 28.6 4.1 57.5.2 86.2.1 3.5 0 5-2.7 4.8-5.4.7-.9 1.1-2 1.2-3.4C421 178.5 421.6 171.3 420 164.2zM410.2 183.7c-25.2.4-50.5 3.4-75.6.5-.6-5.1-1.1-10.2-1.3-15.4 20.5 0 41.2.9 61.6-.8 3.8-.3 7.6-.5 11.5-.5 1.1 0 2.3.1 3.4.3C411.1 172.7 410.5 178.5 410.2 183.7z"/></svg>