<?xml version="1.0"?>
<svg version="1.1" xmlns="http://www.w3.org/2000/svg" width="111" height="36" style=""><path fill="#ff00aa" d="M28.496,15.116l-1.792,0l0,13.02q0,2.1-1.4,3.5t-3.5,1.4t-3.5-1.4q-1.428-1.372-1.428-3.5l0-3.164l-1.736,0l0,3.164q0,2.828,2.016,4.76q1.988,1.904,4.648,1.904q2.912,0,4.816-1.904q1.876-1.876,1.876-4.76l0-13.02z M34.87552,29.424q0-1.344,0.952-2.436q0.952-1.148,2.296-1.148l0.364,0l5.236,0l0-1.736l-5.236,0l-0.364,0q-1.428-0.28-2.338-1.232t-0.91-2.268q0-1.652,0.966-2.618t2.646-0.966l9.52,0l0-1.764l-9.52,0q-2.156,0-3.752,1.596q-1.596,1.54-1.596,3.752q0,1.4,0.532,2.548t1.568,1.652q-1.036,0.756-1.568,1.988t-0.532,2.632q0,2.184,1.596,3.724q1.624,1.624,3.752,1.624l9.52,0l0-1.848l-9.52,0q-1.68,0-2.646-0.952t-0.966-2.548z M66.48304,15.088l-2.128,0l-5.964,14.812l-5.628-14.812l-1.764,0l7.392,19.712z M84.42656,15.2l-15.176,0l0,1.708l6.888,0l0,17.948l1.736,0l0-17.948l6.552,0l0-1.708z M95.62208,15.088q-3.136,0-5.264,2.268q-2.1,2.24-2.1,5.46l0,11.984l1.764,0l0-8.792l11.256,0l0,8.792l1.764,0l0-11.984q0-3.22-2.1-5.46q-2.184-2.268-5.32-2.268z M101.27808,24.272l-11.256,0l0-1.456q0-2.408,1.624-4.172q1.652-1.792,3.976-1.792t4.032,1.792q1.624,1.764,1.624,4.172l0,1.456z"/><path fill="#" d=""/></svg>
